<svg width="23" height="21" viewBox="0 0 23 21" fill="none" xmlns="http://www.w3.org/2000/svg">
<g clip-path="url(#clip0_1_160)">
<path d="M15.3784 10.8824C14.3884 9.441 12.7024 8.58032 10.8682 8.58032C9.03414 8.58032 7.34795 9.441 6.35816 10.8824L3.97272 14.3556C3.57694 14.932 3.39432 15.5976 3.44451 16.2805C3.4947 16.9635 3.77315 17.5995 4.24967 18.1201C4.72652 18.6405 5.35662 18.9961 6.07181 19.1487C6.78701 19.3011 7.52016 19.2361 8.19189 18.9606L8.23569 18.9424C9.92608 18.2623 11.8582 18.2685 13.5443 18.9606C13.9792 19.139 14.44 19.2292 14.9049 19.2292C15.1577 19.2292 15.412 19.2024 15.6639 19.1489C16.3791 18.9964 17.0092 18.6408 17.4862 18.1204C17.9629 17.6 18.2415 16.9638 18.2919 16.2808C18.3422 15.5976 18.1596 14.932 17.7638 14.3555L15.3784 10.8824ZM16.5062 17.3381C15.8994 18.0001 14.9178 18.2094 14.0635 17.8588C13.048 17.4419 11.958 17.2336 10.8677 17.2336C9.77837 17.2336 8.68854 17.4418 7.67374 17.8582L7.64487 17.8701C6.79708 18.2047 5.82995 17.9927 5.22989 17.3381C4.6238 16.6759 4.55482 15.7384 5.05836 15.0051L7.44396 11.5319C8.19558 10.4375 9.47558 9.78407 10.8682 9.78407C12.2608 9.78407 13.541 10.4375 14.2928 11.5319L16.678 15.005C17.1818 15.7386 17.1126 16.6762 16.5062 17.3381Z" fill="white"/>
<path d="M4.61524 10.8778C5.32489 10.6233 5.86402 10.0896 6.13341 9.37479C6.38954 8.69458 6.36856 7.92665 6.07399 7.21229C5.77925 6.49841 5.24315 5.91564 4.56455 5.57115C3.85137 5.20943 3.06803 5.15053 2.35955 5.40541C0.934192 5.91689 0.280093 7.56085 0.901629 9.07087C1.39812 10.2727 2.55609 11.0314 3.72682 11.0314C4.02576 11.0314 4.32553 10.9819 4.61524 10.8778ZM2.10509 8.6385C1.73885 7.74869 2.06061 6.80216 2.8228 6.52864C2.96044 6.47914 3.10596 6.45454 3.2545 6.45454C3.48378 6.45454 3.72061 6.51297 3.94855 6.62874C4.35843 6.83663 4.6859 7.19757 4.87053 7.64482C5.055 8.09239 5.07144 8.56487 4.91669 8.97547C4.77486 9.35176 4.50345 9.62841 4.15265 9.75421L4.15198 9.75452C3.3908 10.0284 2.47251 9.52753 2.10509 8.6385Z" fill="white"/>
<path d="M9.24376 8.15665C11.0256 8.15665 12.4753 6.61514 12.4753 4.72038C12.4753 2.82514 11.0256 1.28333 9.24376 1.28333C7.46207 1.28333 6.01254 2.82514 6.01254 4.72038C6.01254 6.61514 7.46207 8.15665 9.24376 8.15665ZM9.24376 2.48692C10.3145 2.48692 11.1857 3.4889 11.1857 4.72038C11.1857 5.95139 10.3145 6.95305 9.24376 6.95305C8.17307 6.95305 7.30211 5.95139 7.30211 4.72038C7.30211 3.4889 8.17307 2.48692 9.24376 2.48692Z" fill="white"/>
<path d="M14.8247 9.0009H14.8248C15.0989 9.08581 15.3786 9.12638 15.657 9.12638C16.9565 9.12638 18.2229 8.24362 18.7061 6.88697C18.9844 6.10604 18.9661 5.2803 18.6546 4.56203C18.3286 3.81023 17.7246 3.26444 16.9535 3.02507C16.1824 2.78601 15.348 2.88564 14.6046 3.3058C13.8945 3.70731 13.3503 4.35837 13.0725 5.13931C12.4859 6.78671 13.2719 8.51902 14.8247 9.0009ZM14.2963 5.51889C14.4777 5.00897 14.8245 4.58882 15.2728 4.33534C15.6876 4.10083 16.1401 4.04114 16.5468 4.16725C16.9533 4.29352 17.2772 4.59398 17.4592 5.01351C17.6557 5.46688 17.6641 5.99732 17.4824 6.50724C17.12 7.52488 16.1102 8.13114 15.2315 7.85872C14.3535 7.58613 13.9339 6.53653 14.2963 5.51889Z" fill="white"/>
<path d="M21.63 8.59984L21.6295 8.59937C20.4007 7.75217 18.5629 8.11938 17.5325 9.41837C16.5031 10.718 16.6641 12.4652 17.891 13.313C18.3385 13.6224 18.8672 13.7703 19.4084 13.7703C20.3515 13.7703 21.3328 13.321 21.9885 12.4948C23.0179 11.1952 22.8571 9.44798 21.63 8.59984ZM20.9521 11.7787C20.3436 12.5452 19.3149 12.7995 18.6584 12.3457C18.0025 11.8925 17.9626 10.9002 18.5693 10.1341C18.9727 9.62563 19.5618 9.34271 20.1048 9.34271C20.3794 9.34271 20.6422 9.41508 20.8631 9.56751C21.5186 10.0212 21.5583 11.0131 20.9521 11.7787Z" fill="white"/>
</g>
<defs>
<clipPath id="clip0_1_160">
<rect width="22" height="20.5333" fill="white" transform="translate(0.666626)"/>
</clipPath>
</defs>
</svg>
